<?xml version="1.0" encoding="utf-8"?>
<!-- Generator: Adobe Illustrator 23.0.1, SVG Export Plug-In . SVG Version: 6.00 Build 0)  -->
<svg version="1.1" id="Layer_1" xmlns="http://www.w3.org/2000/svg" xmlns:xlink="http://www.w3.org/1999/xlink" x="0px" y="0px"
	 viewBox="0 0 280 60" style="enable-background:new 0 0 280 60;" xml:space="preserve">
<style type="text/css">
	.st0{fill:#2867B2;}
	.st1{fill:#2867B1;}
</style>
<g>
	<path class="st0" d="M194.84,28.05c-7.21,0-13.07,5.86-13.07,13.07s5.86,13.07,13.07,13.07s13.07-5.86,13.07-13.07
		S202.05,28.05,194.84,28.05z M194.84,50.27c-5.05,0-9.15-4.1-9.15-9.15s4.11-9.15,9.15-9.15s9.15,4.1,9.15,9.15
		C203.99,46.16,199.89,50.27,194.84,50.27z"/>
	<path class="st0" d="M253.04,39.16h-11.11c-1.08,0-1.96,0.88-1.96,1.96c0,1.08,0.88,1.96,1.96,1.96h8.94
		c-0.37,1.7-1.21,3.25-2.47,4.51c-1.73,1.73-4.03,2.68-6.47,2.68s-4.74-0.95-6.47-2.68s-2.68-4.03-2.68-6.47
		c0-2.44,0.95-4.74,2.68-6.47c1.73-1.73,4.03-2.68,6.47-2.68s4.74,0.95,6.47,2.68c0.77,0.77,2.01,0.77,2.77,0
		c0.77-0.77,0.77-2.01,0-2.77c-2.47-2.47-5.75-3.83-9.24-3.83s-6.77,1.36-9.24,3.83s-3.83,5.75-3.83,9.24s1.36,6.77,3.83,9.24
		c2.47,2.47,5.75,3.83,9.24,3.83s6.77-1.36,9.24-3.83s3.83-5.75,3.83-9.24C255,40.04,254.12,39.16,253.04,39.16z"/>
	<path class="st0" d="M223.94,28.05c-7.21,0-13.07,5.86-13.07,13.07v11.11c0,1.08,0.88,1.96,1.96,1.96s1.96-0.88,1.96-1.96V41.12
		c0-5.05,4.11-9.15,9.15-9.15c1.08,0,1.96-0.88,1.96-1.96S225.02,28.05,223.94,28.05z"/>
	<path class="st0" d="M175.68,18.9c0-7.21-5.86-13.07-13.07-13.07h-22.22c-1.08,0-1.96,0.88-1.96,1.96v44.44
		c0,1.08,0.88,1.96,1.96,1.96h22.22c7.21,0,13.07-5.86,13.07-13.07c0-4.69-2.48-8.8-6.2-11.11C173.2,27.7,175.68,23.58,175.68,18.9z
		 M171.76,41.12c0,5.05-4.11,9.15-9.15,9.15h-20.26v-18.3h20.26C167.65,31.97,171.76,36.07,171.76,41.12z M162.61,28.05h-20.26V9.75
		h20.26c5.05,0,9.15,4.1,9.15,9.15C171.76,23.94,167.65,28.05,162.61,28.05z"/>
	<path class="st0" d="M112.61,5.83c-10.27,0-18.63,8.36-18.63,18.63v27.78c0,1.08,0.88,1.96,1.96,1.96s1.96-0.88,1.96-1.96V31.97
		h29.41v20.26c0,1.08,0.88,1.96,1.96,1.96s1.96-0.88,1.96-1.96V24.45C131.24,14.18,122.88,5.83,112.61,5.83z M127.32,28.05H97.9
		v-3.6c0-8.11,6.6-14.71,14.71-14.71s14.71,6.6,14.71,14.71V28.05z"/>
	<path class="st0" d="M84.83,50.27H73.72c-8.11,0-14.71-6.6-14.71-14.71V7.79c0-1.08-0.88-1.96-1.96-1.96
		c-1.08,0-1.96,0.88-1.96,1.96v27.78c0,10.27,8.36,18.63,18.63,18.63h11.11c1.08,0,1.96-0.88,1.96-1.96
		C86.79,51.15,85.92,50.27,84.83,50.27z"/>
</g>
<g>
	<defs>
		<rect id="SVGID_1_" y="1014" width="468" height="10"/>
	</defs>
	<clipPath id="SVGID_2_">
		<use xlink:href="#SVGID_1_"  style="overflow:visible;"/>
	</clipPath>
	<g style="clip-path:url(#SVGID_2_);">
		<text transform="matrix(1 0 0 1 0 1021)" style="font-family:'Montserrat-Regular'; font-size:8px;">S</text>
	</g>
</g>
<g>
	<defs>
		<rect id="SVGID_3_" y="1014" width="468" height="10"/>
	</defs>
	<clipPath id="SVGID_4_">
		<use xlink:href="#SVGID_3_"  style="overflow:visible;"/>
	</clipPath>
	<g style="clip-path:url(#SVGID_4_);">
		<text transform="matrix(1 0 0 1 4.9199 1021)" style="font-family:'Montserrat-Regular'; font-size:8px;">I</text>
	</g>
</g>
<g>
	<defs>
		<rect id="SVGID_5_" y="1014" width="468" height="10"/>
	</defs>
	<clipPath id="SVGID_6_">
		<use xlink:href="#SVGID_5_"  style="overflow:visible;"/>
	</clipPath>
	<g style="clip-path:url(#SVGID_6_);">
		<text transform="matrix(1 0 0 1 7.3357 1021)" style="font-family:'Montserrat-Regular'; font-size:8px;">-</text>
	</g>
</g>
<g>
	<defs>
		<rect id="SVGID_7_" y="1014" width="468" height="10"/>
	</defs>
	<clipPath id="SVGID_8_">
		<use xlink:href="#SVGID_7_"  style="overflow:visible;"/>
	</clipPath>
	<g style="clip-path:url(#SVGID_8_);">
		<text transform="matrix(1 0 0 1 10.3916 1021)" style="font-family:'Montserrat-Regular'; font-size:8px;">S</text>
	</g>
</g>
<g>
	<defs>
		<rect id="SVGID_9_" y="1014" width="468" height="10"/>
	</defs>
	<clipPath id="SVGID_10_">
		<use xlink:href="#SVGID_9_"  style="overflow:visible;"/>
	</clipPath>
	<g style="clip-path:url(#SVGID_10_);">
		<text transform="matrix(1 0 0 1 15.3115 1021)" style="font-family:'Montserrat-Regular'; font-size:8px;">quare </text>
	</g>
</g>
<g>
	<defs>
		<rect id="SVGID_11_" y="1014" width="468" height="10"/>
	</defs>
	<clipPath id="SVGID_12_">
		<use xlink:href="#SVGID_11_"  style="overflow:visible;"/>
	</clipPath>
	<g style="clip-path:url(#SVGID_12_);">
		<text transform="matrix(1 0 0 1 40.9746 1021)" style="font-family:'Montserrat-Regular'; font-size:8px;">logo</text>
	</g>
</g>
<g>
	<defs>
		<rect id="SVGID_13_" y="1014" width="468" height="10"/>
	</defs>
	<clipPath id="SVGID_14_">
		<use xlink:href="#SVGID_13_"  style="overflow:visible;"/>
	</clipPath>
	<g style="clip-path:url(#SVGID_14_);">
		<text transform="matrix(1 0 0 1 58.646 1021)" style="font-family:'Calibri'; font-size:12px;">!</text>
	</g>
</g>
<path class="st1" d="M44.55,48.09L32.79,34.55l-0.25-0.28c-0.96-1.16-1.53-2.65-1.53-4.26V4.83c0,0,1.14-0.23,1.5-0.59
	c0.36-0.36,0.59-0.87,0.59-1.42c0-1.11-0.9-2.02-2.01-2.02H18.35c-0.55,0-1.06,0.23-1.42,0.59c-0.36,0.36-0.59,0.87-0.59,1.42
	c0,0.56,0.2,1.01,0.74,1.14c0.52,0.13,11.24,0.87,11.78,0.87L18.43,4.6V30c0,0,0.19,3.85-2.6,5.21c1.59-2.06,1.53-3.59,1.53-5.21
	V4.35c-1.11,0-2.09-0.44-2.09-1.54c0-0.55,0.23-1.06,0.59-1.42c0.36-0.36,0.87-0.59,1.42-0.59h-0.95c-0.55,0-1.06,0.23-1.42,0.59
	c-0.36,0.36-0.59,0.87-0.59,1.42c0,1.1,0.98,2.01,2.09,2.01V30c0,1.62-0.58,3.1-1.53,4.26l-0.25,0.28L2.87,48.09
	c-1.1,1.27-1.65,2.84-1.65,4.4c0,1.87,0.78,3.74,2.31,5.06c1.27,1.1,2.84,1.65,4.4,1.65H39.5c1.56,0,3.13-0.54,4.4-1.65
	c1.52-1.33,2.3-3.19,2.3-5.06C46.2,50.93,45.66,49.36,44.55,48.09z M25.83,33.74c0.39,0,0.7,0.32,0.7,0.7c0,0.39-0.32,0.7-0.7,0.7
	c-0.39,0-0.7-0.32-0.7-0.7C25.13,34.05,25.44,33.74,25.83,33.74z M25.69,38.72c0.47,0,0.84,0.38,0.84,0.84
	c0,0.47-0.38,0.84-0.84,0.84s-0.84-0.38-0.84-0.84C24.85,39.1,25.22,38.72,25.69,38.72z M24.68,31.46c0,0.31-0.25,0.56-0.56,0.56
	c-0.31,0-0.56-0.25-0.56-0.56c0-0.31,0.25-0.56,0.56-0.56C24.42,30.89,24.68,31.14,24.68,31.46z M23.67,27.36
	c0.31,0,0.56,0.25,0.56,0.56c0,0.31-0.25,0.56-0.56,0.56c-0.31,0-0.56-0.25-0.56-0.56C23.11,27.61,23.36,27.36,23.67,27.36z
	 M22.26,35.56c0.7,0,1.27,0.57,1.27,1.27s-0.57,1.27-1.27,1.27c-0.7,0-1.27-0.57-1.27-1.27S21.56,35.56,22.26,35.56z M43.02,56.54
	c-0.98,0.85-2.23,1.32-3.52,1.32H7.93c-1.29,0-2.54-0.47-3.52-1.32c-1.18-1.02-1.85-2.5-1.85-4.05c0-1.29,0.47-2.54,1.32-3.52
	l4.97-5.72c0.54-0.51,1.79-0.59,3.48-0.43c0.67-0.75,2.03-1.27,3.59-1.27c1.41,0,2.66,0.42,3.38,1.06c0.2-0.43,0.64-0.73,1.15-0.73
	c0.62,0,1.13,0.44,1.24,1.02c0.33-0.28,0.76-0.45,1.22-0.45c0.6,0,1.12,0.28,1.48,0.7c0.46-0.94,1.42-1.59,2.53-1.59
	c0.97,0,1.83,0.49,2.33,1.24c0.52-0.64,1.69-0.95,2.95-0.7c1.23,0.24,2.19,0.94,2.45,1.71c0.99-0.49,1.81-1.17,2.38-2.1
	c0.16,0.23,0.31,0.47,0.39,0.72c0.09,0.27,0.09,0.54,0.01,0.77c-0.17,0.48-0.67,0.87-1.2,1.15c-1.1,0.56-2.37,0.9-3.64,1.15
	c-2.54,0.51-5.16,0.74-7.78,0.84c-2.62,0.08-5.24,0.06-7.85-0.15c-1.3-0.11-2.6-0.26-3.88-0.5c-0.64-0.12-1.27-0.27-1.87-0.48
	c-0.3-0.11-0.6-0.22-0.86-0.37c-0.26-0.15-0.51-0.34-0.62-0.55l-0.01-0.02c-0.06-0.11-0.2-0.16-0.31-0.1
	c-0.12,0.06-0.17,0.2-0.11,0.32c0.19,0.38,0.5,0.61,0.79,0.79c0.3,0.19,0.62,0.32,0.93,0.44c0.64,0.24,1.28,0.42,1.93,0.56
	c1.3,0.3,2.62,0.48,3.94,0.61c2.64,0.26,5.29,0.35,7.94,0.27c2.65-0.09,5.3-0.28,7.93-0.81c0.65-0.14,1.31-0.31,1.95-0.51
	c0.64-0.21,1.28-0.45,1.89-0.81c0.3-0.18,0.6-0.38,0.86-0.65c0.26-0.26,0.5-0.59,0.6-0.98c0.07-0.28,0.06-0.58,0-0.85l5.48,6.43
	c0.85,0.98,1.32,2.23,1.32,3.52C44.86,54.04,44.19,55.52,43.02,56.54z"/>
</svg>
